<svg width="40" height="40" viewBox="0 0 40 40" fill="none" xmlns="http://www.w3.org/2000/svg">
<rect x="0.5" y="0.5" width="39" height="39" rx="3.5" fill="#061B13"/>
<rect x="0.5" y="0.5" width="39" height="39" rx="3.5" stroke="#373D3D"/>
<g clip-path="url(#clip0_545_218)">
<path d="M32 20C32 13.3726 26.6274 8 20 8C13.3726 8 8 13.3726 8 20C8 26.6274 13.3726 32 20 32C26.6274 32 32 26.6274 32 20Z" fill="#330000"/>
<path d="M20.0227 22.3065H17.1453L16.5599 24.1701C16.5434 24.2402 16.4807 24.2884 16.4104 24.285H14.953C14.8699 24.285 14.8408 24.2382 14.8658 24.1446L17.357 16.7922C17.382 16.7156 17.4069 16.6284 17.4318 16.5305C17.4644 16.3603 17.4811 16.1872 17.4816 16.0136C17.4782 15.989 17.4863 15.9642 17.5034 15.9466C17.5206 15.929 17.5448 15.9207 17.5688 15.9242H19.5494C19.6074 15.9242 19.6406 15.9455 19.649 15.9881L22.4766 24.1574C22.5015 24.2425 22.4766 24.2851 22.4018 24.285H20.7825C20.725 24.2915 20.6717 24.2533 20.658 24.1956L20.0227 22.3065ZM17.5937 20.6982H19.5618L19.5338 20.6033L19.4887 20.453L19.4566 20.3474L19.4054 20.1813L19.2963 19.8314L19.2004 19.5212L18.9515 18.7133C18.8874 18.5054 18.8279 18.3038 18.773 18.1084L18.7274 17.9442L18.6742 17.7499L18.5929 17.4489C18.5878 17.4298 18.5828 17.4109 18.5778 17.3922H18.5653C18.503 17.6986 18.4271 18.002 18.3378 18.3013L18.153 18.9104L18.0513 19.2469L17.9487 19.5877C17.9302 19.6492 17.9117 19.7101 17.8933 19.7702L17.8381 19.9485L17.7833 20.1225L17.7287 20.2923L17.6745 20.4578C17.6565 20.5123 17.6385 20.5661 17.6206 20.6191L17.5937 20.6982ZM24.158 17.2773C23.9011 17.2879 23.6519 17.1857 23.473 16.9965C23.2947 16.7993 23.2006 16.5374 23.2113 16.2689C23.2022 16.0027 23.3041 15.745 23.4916 15.5605C23.6707 15.3844 23.9089 15.2862 24.1564 15.2857L24.1829 15.2861C24.4819 15.2861 24.7165 15.3775 24.8867 15.5605C25.0603 15.7525 25.1522 16.0074 25.1421 16.2689C25.1526 16.5386 25.056 16.8011 24.8743 16.9965C24.6906 17.182 24.4418 17.2834 24.1847 17.2782L24.158 17.2773ZM23.2985 24.1574V18.0559C23.2985 17.9793 23.3316 17.941 23.3982 17.941H24.9303C24.9967 17.941 25.0299 17.9793 25.03 18.0559V24.1574C25.03 24.2425 24.9968 24.2851 24.9303 24.285H23.4107C23.3399 24.285 23.3026 24.2468 23.2988 24.1704L23.2985 24.1574Z" fill="#FF9A00"/>
</g>
<defs>
<clipPath id="clip0_545_218">
<rect width="24" height="24" fill="white" transform="translate(8 8)"/>
</clipPath>
</defs>
</svg>
