<svg width="56" height="56" viewBox="0 0 56 56" fill="none" xmlns="http://www.w3.org/2000/svg">
<rect width="56" height="56" rx="28" fill="#00005B"/>
<path d="M23.1864 33.8967H14.7178L12.9876 39.1893C12.9421 39.391 12.7599 39.5256 12.5551 39.5032H8.27535C8.02489 39.5032 7.95671 39.3686 8.02489 39.0995L15.3553 18.3997C15.4235 18.1753 15.4919 17.9736 15.583 17.7045C15.6742 17.2336 15.7196 16.7402 15.7196 16.2467C15.6969 16.1346 15.7878 16.0224 15.9017 16H21.7978C21.9571 16 22.071 16.0672 22.0937 16.1793L30.403 39.0545C30.4714 39.3012 30.403 39.4134 30.1753 39.4134H25.4173C25.258 39.4358 25.0987 39.3236 25.053 39.1667L23.1862 33.7843V33.8965L23.1864 33.8967ZM16.0383 29.4338H21.8205C21.6839 28.963 21.5019 28.4021 21.2969 27.8191C21.0919 27.2137 20.8871 26.5633 20.6823 25.8905C20.4546 25.1953 20.2498 24.5225 20.0221 23.8273C19.7944 23.1321 19.5896 22.4817 19.4076 21.8313C19.2255 21.2033 19.0662 20.6202 18.9067 20.082H18.8612C18.6562 21.0463 18.406 22.0106 18.0871 22.9752C17.7458 24.0516 17.4042 25.1729 17.0399 26.2944C16.744 27.438 16.3796 28.4921 16.0383 29.434V29.4338ZM43.8116 31.8783H36.595C36.6862 32.5735 36.9137 33.2687 37.3007 33.8743C37.7105 34.4797 38.2796 34.9508 38.9625 35.2199C39.8732 35.6012 40.8748 35.8029 41.8764 35.7805C42.6732 35.7581 43.47 35.6907 44.2439 35.5338C44.9496 35.444 45.6325 35.2647 46.27 35.0179C46.3839 34.9282 46.452 34.9732 46.452 35.1973V38.6287C46.452 38.7184 46.4293 38.808 46.4066 38.8978C46.3611 38.9652 46.3155 39.0099 46.2473 39.0547C45.5189 39.3686 44.7675 39.593 43.9707 39.7275C42.9007 39.9293 41.8307 40.019 40.738 39.9966C39.0078 39.9966 37.5509 39.7275 36.3671 39.2117C35.2516 38.7406 34.2728 38.0006 33.4987 37.0811C32.7703 36.2066 32.2466 35.2197 31.928 34.1432C31.6094 33.0891 31.4498 31.9902 31.4498 30.869C31.4498 29.6579 31.6319 28.4693 32.0189 27.303C32.3832 26.1818 32.9523 25.1501 33.7262 24.2305C34.4775 23.3334 35.4107 22.6158 36.4807 22.1C37.5507 21.5841 38.8255 21.4048 40.2825 21.4048C41.4891 21.3824 42.6957 21.6067 43.8112 22.1C44.7446 22.5037 45.5641 23.1093 46.2016 23.894C46.7934 24.6566 47.2716 25.5088 47.5675 26.4507C47.8634 27.3478 48 28.2671 48 29.1867C48 29.7249 47.9773 30.196 47.9545 30.622C47.9091 31.0481 47.8861 31.3622 47.8634 31.5639C47.8407 31.7209 47.7041 31.8555 47.5448 31.8555C47.4082 31.8555 47.1577 31.8778 46.7934 31.9002C46.4291 31.945 45.9966 31.9676 45.473 31.9676C44.9493 31.9676 44.403 31.8778 43.8112 31.8778L43.8116 31.8783ZM36.595 28.6041H41.3984C41.9902 28.6041 42.423 28.6041 42.6959 28.5817C42.878 28.5593 43.0602 28.5143 43.2196 28.4023V28.178C43.2196 27.8865 43.1741 27.6174 43.083 27.3482C42.6732 26.0924 41.4666 25.2401 40.1234 25.2851C38.8714 25.2177 37.6875 25.8681 37.0957 26.9896C36.8225 27.5054 36.6632 28.0436 36.5948 28.6043L36.595 28.6041Z" fill="#9999FF"/>
</svg>
