<svg width="40" height="40" viewBox="0 0 40 40" fill="none" xmlns="http://www.w3.org/2000/svg">
<rect x="0.5" y="0.5" width="39" height="39" rx="3.5" fill="#061B13"/>
<rect x="0.5" y="0.5" width="39" height="39" rx="3.5" stroke="#373D3D"/>
<g clip-path="url(#clip0_545_228)">
<path d="M32 20C32 13.3726 26.6274 8 20 8C13.3726 8 8 13.3726 8 20C8 26.6274 13.3726 32 20 32C26.6274 32 32 26.6274 32 20Z" fill="#001E36"/>
<path d="M16.6592 15.7143C16.4099 15.7143 16.1606 15.7143 15.9031 15.7227C15.6453 15.731 15.4043 15.731 15.1799 15.7394C14.9556 15.7477 14.7479 15.7477 14.5484 15.756C14.3573 15.7643 14.2244 15.7643 14.0831 15.7643C14.0249 15.7643 14 15.7976 14 15.856V24.431C14 24.506 14.0332 24.5394 14.0997 24.5394H15.7119C15.77 24.531 15.8116 24.481 15.8032 24.4227V21.7477C15.961 21.7477 16.0774 21.7477 16.1606 21.756C16.2437 21.7643 16.3766 21.7643 16.576 21.7643C17.2575 21.7643 17.8808 21.6893 18.4457 21.481C18.9859 21.281 19.4513 20.931 19.7836 20.4643C20.116 19.9977 20.2822 19.406 20.2822 18.6893C20.2822 18.3143 20.2158 17.956 20.0912 17.606C19.9592 17.2494 19.7523 16.9254 19.4845 16.656C19.1685 16.3481 18.7881 16.1147 18.3709 15.9726C17.9055 15.7976 17.3405 15.7143 16.6592 15.7143ZM16.8446 17.3557C17.1407 17.3613 17.4289 17.4132 17.6978 17.5226C17.9389 17.6143 18.1383 17.781 18.2796 17.9976C18.4123 18.2216 18.4786 18.479 18.4708 18.7394C18.4708 19.106 18.3876 19.3895 18.2131 19.5977C18.0302 19.806 17.7975 19.9644 17.5317 20.0394C17.2241 20.1395 16.9001 20.1893 16.576 20.1893H16.1355C16.0358 20.1893 15.928 20.181 15.8116 20.1727V17.3727C15.8697 17.3643 15.9861 17.356 16.1523 17.3645C16.3102 17.356 16.5012 17.356 16.7173 17.356C16.7598 17.3549 16.8024 17.3548 16.8446 17.3557ZM23.8139 17.7812C23.2239 17.7812 22.7336 17.8727 22.3431 18.0727C21.9858 18.2394 21.6783 18.506 21.4706 18.8393C21.2878 19.1477 21.188 19.4893 21.188 19.8477C21.1808 20.1425 21.2465 20.4345 21.3791 20.6977C21.5346 20.978 21.7504 21.2199 22.0108 21.406C22.3763 21.6567 22.773 21.8584 23.1907 22.006C23.5979 22.1643 23.8721 22.2893 24.0051 22.3976C24.138 22.506 24.2045 22.6143 24.2045 22.731C24.2045 22.881 24.1131 23.0227 23.9802 23.081C23.8306 23.156 23.6063 23.1977 23.2904 23.1977C22.9581 23.1977 22.6256 23.156 22.3098 23.0727C21.9472 22.9914 21.5995 22.8536 21.2794 22.6644C21.2545 22.6477 21.2295 22.6394 21.2046 22.6562C21.1797 22.6727 21.1714 22.706 21.1714 22.731V24.181C21.1632 24.2477 21.2046 24.306 21.2629 24.3393C21.5324 24.4655 21.8174 24.5552 22.1105 24.606C22.4844 24.681 22.8582 24.7143 23.2404 24.7143C23.8387 24.7143 24.3375 24.6227 24.7446 24.4477C25.1186 24.2977 25.4426 24.0395 25.6752 23.706C25.893 23.3782 26.0061 22.9916 25.9993 22.5977C26.0075 22.3002 25.9418 22.0053 25.8083 21.7394C25.6503 21.456 25.426 21.2227 25.1517 21.0477C24.7505 20.7951 24.321 20.5909 23.8721 20.4393C23.6716 20.3561 23.4747 20.2643 23.282 20.1643C23.174 20.106 23.0743 20.031 22.9995 19.9393C22.9497 19.8726 22.9165 19.7977 22.9165 19.7227C22.9165 19.6477 22.9414 19.5644 22.9829 19.4977C23.0411 19.4144 23.1324 19.356 23.2404 19.331C23.3984 19.2894 23.5729 19.2643 23.739 19.2726C24.0548 19.2726 24.3623 19.3143 24.6698 19.381C24.9524 19.4393 25.2182 19.531 25.4675 19.6644C25.5008 19.681 25.5423 19.681 25.6171 19.6644C25.6301 19.6548 25.6407 19.6422 25.6479 19.6277C25.6552 19.6133 25.6589 19.5972 25.6587 19.581V18.2227C25.6587 18.1893 25.6503 18.156 25.6421 18.1227C25.6254 18.0894 25.5922 18.056 25.559 18.0477C25.3298 17.9537 25.0897 17.8893 24.8443 17.856C24.5031 17.8062 24.1588 17.7812 23.8139 17.7812Z" fill="#31A8FF"/>
</g>
<defs>
<clipPath id="clip0_545_228">
<rect width="24" height="24" fill="white" transform="translate(8 8)"/>
</clipPath>
</defs>
</svg>
