<svg width="56" height="56" viewBox="0 0 56 56" fill="none" xmlns="http://www.w3.org/2000/svg">
<rect width="56" height="56" rx="28" fill="#001E36"/>
<path d="M20.2048 18C19.6231 18 19.0414 18 18.4405 18.0197C17.8391 18.039 17.2767 18.039 16.7532 18.0587C16.2297 18.078 15.7451 18.078 15.2797 18.0973C14.8336 18.1167 14.5235 18.1167 14.1938 18.1167C14.0582 18.1167 14 18.1943 14 18.3307V38.339C14 38.514 14.0774 38.592 14.2327 38.592H17.9944C18.13 38.5723 18.2271 38.4557 18.2074 38.3197V32.078C18.5757 32.078 18.8473 32.078 19.0414 32.0973C19.2352 32.1167 19.5453 32.1167 20.0106 32.1167C21.6008 32.1167 23.0551 31.9417 24.3733 31.4557C25.6337 30.989 26.7197 30.1723 27.4951 29.0833C28.2706 27.9947 28.6585 26.614 28.6585 24.9417C28.6585 24.0667 28.5036 23.2307 28.2128 22.414C27.9048 21.5819 27.422 20.8259 26.7971 20.1973C26.0598 19.479 25.1722 18.9342 24.1988 18.6027C23.1129 18.1943 21.7946 18 20.2048 18ZM20.6374 21.8299C21.3282 21.8431 22.0007 21.9641 22.6282 22.2193C23.1907 22.4333 23.656 22.8223 23.9858 23.3277C24.2954 23.8505 24.4501 24.4509 24.4318 25.0587C24.4318 25.914 24.2377 26.5754 23.8305 27.0614C23.4037 27.5473 22.8609 27.917 22.2407 28.092C21.523 28.3254 20.7668 28.4417 20.0106 28.4417H18.9829C18.7502 28.4417 18.4986 28.4223 18.227 28.403V21.8697C18.3627 21.85 18.6342 21.8307 19.0221 21.8504C19.3904 21.8307 19.8361 21.8307 20.3404 21.8307C20.4396 21.8281 20.5389 21.8278 20.6374 21.8299ZM36.8992 22.8227C35.5224 22.8227 34.3783 23.0364 33.4673 23.503C32.6336 23.892 31.916 24.514 31.4314 25.2917C31.0049 26.0114 30.7719 26.8083 30.7719 27.6447C30.7552 28.3326 30.9085 29.0139 31.2179 29.628C31.5807 30.2819 32.0842 30.8465 32.6918 31.2807C33.5448 31.8656 34.4704 32.3363 35.445 32.6807C36.395 33.05 37.0348 33.3417 37.3453 33.5943C37.6554 33.8473 37.8106 34.1 37.8106 34.3723C37.8106 34.7223 37.5972 35.053 37.2871 35.189C36.9381 35.364 36.4146 35.4614 35.6777 35.4614C34.9022 35.4614 34.1264 35.364 33.3895 35.1697C32.5434 34.98 31.7321 34.6585 30.9853 34.217C30.9271 34.178 30.8689 34.1587 30.8108 34.1977C30.7526 34.2364 30.7333 34.314 30.7333 34.3723V37.7557C30.7141 37.9114 30.8108 38.0473 30.9467 38.125C31.5755 38.4196 32.2406 38.6289 32.9245 38.7473C33.797 38.9223 34.6692 39 35.561 39C36.957 39 38.1208 38.7864 39.0707 38.378C39.9433 38.028 40.6995 37.4254 41.2422 36.6473C41.7504 35.8824 42.0142 34.9804 41.9984 34.0614C42.0174 33.3671 41.8642 32.679 41.5527 32.0587C41.1841 31.3973 40.6606 30.853 40.0207 30.4447C39.0846 29.8553 38.0824 29.3787 37.0348 29.025C36.567 28.8309 36.1076 28.6168 35.658 28.3833C35.4061 28.2473 35.1734 28.0723 34.9989 27.8583C34.8826 27.7027 34.8051 27.528 34.8051 27.353C34.8051 27.178 34.8633 26.9837 34.96 26.828C35.096 26.6337 35.309 26.4973 35.561 26.439C35.9296 26.342 36.3368 26.2833 36.7243 26.3027C37.4613 26.3027 38.1786 26.4 38.8962 26.5557C39.5557 26.6917 40.1759 26.9057 40.7576 27.217C40.8351 27.2557 40.9321 27.2557 41.1066 27.217C41.137 27.1946 41.1617 27.1652 41.1785 27.1314C41.1954 27.0976 41.204 27.0602 41.2037 27.0223V23.853C41.2037 23.775 41.1841 23.6973 41.1648 23.6197C41.1259 23.542 41.0485 23.464 40.971 23.4447C40.4363 23.2254 39.8759 23.075 39.3034 22.9973C38.5073 22.8811 37.7038 22.8229 36.8992 22.8227Z" fill="#31A8FF"/>
</svg>
