<svg width="56" height="56" viewBox="0 0 56 56" fill="none" xmlns="http://www.w3.org/2000/svg">
<rect width="56" height="56" rx="28" fill="#330000"/>
<path d="M28.053 33.3818H21.339L19.973 37.7303C19.9346 37.8938 19.7882 38.0063 19.6242 37.9983H16.2237C16.0297 37.9983 15.9619 37.8891 16.0202 37.6707L21.8331 20.5152C21.8913 20.3365 21.9494 20.133 22.0075 19.9046C22.0836 19.5073 22.1225 19.1034 22.1238 18.6984C22.1158 18.641 22.1347 18.5831 22.1747 18.5421C22.2147 18.5011 22.2712 18.4817 22.3273 18.4899H26.9485C27.0839 18.4899 27.1614 18.5396 27.181 18.6389L33.7788 37.7005C33.8369 37.8992 33.7787 37.9985 33.6043 37.9983H29.8259C29.6916 38.0136 29.5672 37.9243 29.5353 37.7898L28.053 33.3818ZM22.3853 29.6291H26.9776L26.9122 29.4076L26.807 29.0569L26.7321 28.8107L26.6125 28.423L26.358 27.6066L26.1343 26.8828L25.5534 24.9977C25.4039 24.5126 25.2651 24.0422 25.137 23.5863L25.0307 23.2031L24.9064 22.7498L24.7168 22.0475C24.7049 22.0029 24.6931 21.9588 24.6815 21.9151H24.6524C24.507 22.6301 24.3299 23.3379 24.1216 24.0363L23.6904 25.4575L23.4531 26.2428L23.2137 27.0379C23.1704 27.1815 23.1273 27.3235 23.0843 27.4638L22.9556 27.8798L22.8276 28.2859L22.7004 28.682L22.5738 29.0683C22.5318 29.1954 22.4898 29.3208 22.448 29.4446L22.3853 29.6291ZM37.7021 21.647C37.1026 21.6717 36.5211 21.4334 36.1036 20.9918C35.6877 20.5317 35.468 19.9207 35.4931 19.2941C35.4718 18.6729 35.7096 18.0717 36.1471 17.6411C36.5649 17.2302 37.1208 17.0011 37.6983 17L37.7602 17.0008C38.4578 17.0008 39.0052 17.2142 39.4024 17.6411C39.8073 18.0892 40.0217 18.6839 39.9982 19.2941C40.0227 19.9233 39.7973 20.5359 39.3733 20.9918C38.9447 21.4247 38.3642 21.6612 37.7643 21.6492L37.7021 21.647ZM35.6966 37.7005V23.4638C35.6966 23.2851 35.7738 23.1957 35.9291 23.1957H39.5041C39.659 23.1957 39.7365 23.2851 39.7367 23.4638V37.7005C39.7367 37.8992 39.6591 37.9985 39.5041 37.9983H35.9582C35.793 37.9983 35.7061 37.9092 35.6973 37.731L35.6966 37.7005Z" fill="#FF9A00"/>
</svg>
