<svg width="56" height="56" viewBox="0 0 56 56" fill="none" xmlns="http://www.w3.org/2000/svg">
<rect width="56" height="56" rx="28" fill="#00005B"/>
<path d="M12 39.7034V16.3867C12 16.2284 12.0694 16.1378 12.2328 16.1378C12.6279 16.1378 12.9995 16.1378 13.5333 16.1148C14.0906 16.0918 14.6715 16.0919 15.2982 16.0689C15.9249 16.0459 16.5987 16.0459 17.3183 16.023C18.0379 16 18.7351 16 19.4312 16C21.3348 16.0012 22.914 16.2272 24.2144 16.7034C25.3762 17.0889 26.4438 17.7234 27.3256 18.5609C28.0687 19.2861 28.6496 20.1695 29.0212 21.1448C29.3692 22.096 29.555 23.0713 29.555 24.0913C29.555 26.0395 29.0905 27.6493 28.1616 28.9182C27.2327 30.1872 25.9323 31.1396 24.4225 31.6834C22.8434 32.2502 21.102 32.4533 19.1971 32.4533C18.6398 32.4533 18.2682 32.4533 18.0366 32.4303C17.805 32.4073 17.4793 32.4073 17.0384 32.4073V39.6816C17.0619 39.84 16.9455 39.9765 16.7832 39.9983H12.2774C12.0929 39.9983 12 39.9076 12 39.7034ZM17.0619 20.5103V28.1242C17.3876 28.1472 17.6886 28.1701 17.9673 28.1701H19.1984C20.1037 28.1701 21.0103 28.0348 21.8686 27.7617C22.6118 27.5574 23.262 27.1272 23.7723 26.5604C24.2603 25.9935 24.4919 25.2237 24.4919 24.2266C24.5154 23.5245 24.3296 22.8223 23.958 22.2096C23.563 21.621 23.0056 21.1678 22.3331 20.9176C21.4735 20.578 20.5446 20.4414 19.5922 20.4644C18.9878 20.4644 18.454 20.4644 18.0131 20.4874C17.5499 20.4644 17.2241 20.4874 17.0619 20.5103Z" fill="#9999FF"/>
<path d="M32.8074 21.824H36.8711C37.1039 21.824 37.2897 21.9824 37.3591 22.1866C37.4284 22.3679 37.4755 22.5492 37.4978 22.7534C37.5448 22.9806 37.5907 23.2296 37.6142 23.4556C37.6377 23.7046 37.6613 23.9765 37.6613 24.2714C38.3573 23.4786 39.1946 22.8211 40.1458 22.3232C41.2134 21.7346 42.4445 21.4397 43.6756 21.4397C43.8378 21.4168 43.9778 21.5304 44.0001 21.6887V26.1978C44.0001 26.3791 43.8837 26.4468 43.6285 26.4468C42.7925 26.4238 41.933 26.4915 41.1205 26.674C40.4467 26.8093 39.7965 27.0136 39.1698 27.2855C38.7289 27.4897 38.3103 27.7617 37.9858 28.1242V39.6804C37.9858 39.9076 37.8929 39.9971 37.6836 39.9971H33.1084C32.9226 40.02 32.7604 39.9064 32.7368 39.7252V27.0813C32.7368 26.5374 32.7368 25.9706 32.7133 25.382C32.6898 24.7935 32.6898 24.2037 32.6663 23.6151C32.6663 23.0942 32.6204 22.5951 32.5734 22.0742C32.5498 21.9606 32.6204 21.847 32.7356 21.8252C32.7368 21.8023 32.7839 21.8023 32.8074 21.824Z" fill="#9999FF"/>
</svg>
