<svg width="56" height="55" viewBox="0 0 56 55" fill="none" xmlns="http://www.w3.org/2000/svg">
<rect width="56" height="55" rx="27.5" fill="#001E36"/>
<path d="M20.2048 17C19.6231 17 19.0414 17 18.4405 17.0197C17.8391 17.039 17.2767 17.039 16.7532 17.0587C16.2297 17.078 15.7451 17.078 15.2797 17.0973C14.8336 17.1167 14.5235 17.1167 14.1938 17.1167C14.0582 17.1167 14 17.1943 14 17.3307V37.339C14 37.514 14.0774 37.592 14.2327 37.592H17.9944C18.13 37.5723 18.2271 37.4557 18.2074 37.3197V31.078C18.5757 31.078 18.8473 31.078 19.0414 31.0973C19.2352 31.1167 19.5453 31.1167 20.0106 31.1167C21.6008 31.1167 23.0551 30.9417 24.3733 30.4557C25.6337 29.989 26.7197 29.1723 27.4951 28.0833C28.2706 26.9947 28.6585 25.614 28.6585 23.9417C28.6585 23.0667 28.5036 22.2307 28.2128 21.414C27.9048 20.5819 27.422 19.8259 26.7971 19.1973C26.0598 18.479 25.1722 17.9342 24.1988 17.6027C23.1129 17.1943 21.7946 17 20.2048 17ZM20.6374 20.8299C21.3282 20.8431 22.0007 20.9641 22.6282 21.2193C23.1907 21.4333 23.656 21.8223 23.9858 22.3277C24.2954 22.8505 24.4501 23.4509 24.4318 24.0587C24.4318 24.914 24.2377 25.5754 23.8305 26.0614C23.4037 26.5473 22.8609 26.917 22.2407 27.092C21.523 27.3254 20.7668 27.4417 20.0106 27.4417H18.9829C18.7502 27.4417 18.4986 27.4223 18.227 27.403V20.8697C18.3627 20.85 18.6342 20.8307 19.0221 20.8504C19.3904 20.8307 19.8361 20.8307 20.3404 20.8307C20.4396 20.8281 20.5389 20.8278 20.6374 20.8299ZM36.8992 21.8227C35.5224 21.8227 34.3783 22.0364 33.4673 22.503C32.6336 22.892 31.916 23.514 31.4314 24.2917C31.0049 25.0114 30.7719 25.8083 30.7719 26.6447C30.7552 27.3326 30.9085 28.0139 31.2179 28.628C31.5807 29.2819 32.0842 29.8465 32.6918 30.2807C33.5448 30.8656 34.4704 31.3363 35.445 31.6807C36.395 32.05 37.0348 32.3417 37.3453 32.5943C37.6554 32.8473 37.8106 33.1 37.8106 33.3723C37.8106 33.7223 37.5972 34.053 37.2871 34.189C36.9381 34.364 36.4146 34.4614 35.6777 34.4614C34.9022 34.4614 34.1264 34.364 33.3895 34.1697C32.5434 33.98 31.7321 33.6585 30.9853 33.217C30.9271 33.178 30.8689 33.1587 30.8108 33.1977C30.7526 33.2364 30.7333 33.314 30.7333 33.3723V36.7557C30.7141 36.9114 30.8108 37.0473 30.9467 37.125C31.5755 37.4196 32.2406 37.6289 32.9245 37.7473C33.797 37.9223 34.6692 38 35.561 38C36.957 38 38.1208 37.7864 39.0707 37.378C39.9433 37.028 40.6995 36.4254 41.2422 35.6473C41.7504 34.8824 42.0142 33.9804 41.9984 33.0614C42.0174 32.3671 41.8642 31.679 41.5527 31.0587C41.1841 30.3973 40.6606 29.853 40.0207 29.4447C39.0846 28.8553 38.0824 28.3787 37.0348 28.025C36.567 27.8309 36.1076 27.6168 35.658 27.3833C35.4061 27.2473 35.1734 27.0723 34.9989 26.8583C34.8826 26.7027 34.8051 26.528 34.8051 26.353C34.8051 26.178 34.8633 25.9837 34.96 25.828C35.096 25.6337 35.309 25.4973 35.561 25.439C35.9296 25.342 36.3368 25.2833 36.7243 25.3027C37.4613 25.3027 38.1786 25.4 38.8962 25.5557C39.5557 25.6917 40.1759 25.9057 40.7576 26.217C40.8351 26.2557 40.9321 26.2557 41.1066 26.217C41.137 26.1946 41.1617 26.1652 41.1785 26.1314C41.1954 26.0976 41.204 26.0602 41.2037 26.0223V22.853C41.2037 22.775 41.1841 22.6973 41.1648 22.6197C41.1259 22.542 41.0485 22.464 40.971 22.4447C40.4363 22.2254 39.8759 22.075 39.3034 21.9973C38.5073 21.8811 37.7038 21.8229 36.8992 21.8227Z" fill="#31A8FF"/>
</svg>
