<svg width="56" height="56" viewBox="0 0 56 56" fill="none" xmlns="http://www.w3.org/2000/svg">
<rect width="56" height="56" rx="28" fill="white"/>
<path d="M43.0003 40.8091C43.0065 41.9824 42.5046 43.1019 41.622 43.8834C40.7394 44.6649 39.5609 45.0332 38.3859 44.8948C36.2715 44.5845 34.7219 42.76 34.7735 40.6412V16.2813C34.7224 14.1602 36.2757 12.3348 38.393 12.0278C39.5669 11.8915 40.7433 12.2608 41.6243 13.042C42.5053 13.8233 43.0063 14.9415 43.0003 16.1134V40.8091Z" fill="#F9AB00"/>
<path d="M17.1134 36.7725C19.3852 36.7725 21.2268 38.5986 21.2268 40.8511C21.2268 43.1037 19.3852 44.9298 17.1134 44.9298C14.8416 44.9298 13 43.1037 13 40.8511C13 38.5986 14.8416 36.7725 17.1134 36.7725ZM27.9367 24.4106C25.6541 24.5347 23.8832 26.4331 23.9361 28.6992V39.6548C23.9361 42.6281 25.2555 44.4331 27.1888 44.8178C28.4024 45.0617 29.6624 44.7515 30.6199 43.9729C31.5775 43.1943 32.1311 42.03 32.1277 40.8022V28.5103C32.1297 27.4126 31.687 26.3602 30.8989 25.5893C30.1108 24.8184 29.0435 24.3938 27.9367 24.4106Z" fill="#E37400"/>
</svg>
