<svg width="40" height="40" viewBox="0 0 40 40" fill="none" xmlns="http://www.w3.org/2000/svg">
<rect x="0.5" y="0.5" width="39" height="39" rx="3.5" fill="#061B13"/>
<rect x="0.5" y="0.5" width="39" height="39" rx="3.5" stroke="#373D3D"/>
<g clip-path="url(#clip0_545_316)">
<path d="M32 20C32 13.3726 26.6274 8 20 8C13.3726 8 8 13.3726 8 20C8 26.6274 13.3726 32 20 32C26.6274 32 32 26.6274 32 20Z" fill="white"/>
<path d="M26.4287 25.4896C26.4314 25.9925 26.2163 26.4722 25.838 26.8072C25.4598 27.1421 24.9547 27.2999 24.4511 27.2406C23.5449 27.1076 22.8808 26.3257 22.9029 25.4177V14.9777C22.881 14.0687 23.5467 13.2863 24.4542 13.1548C24.9573 13.0964 25.4614 13.2546 25.839 13.5894C26.2166 13.9243 26.4313 14.4035 26.4287 14.9057V25.4896Z" fill="#F9AB00"/>
<path d="M15.3343 23.7596C16.308 23.7596 17.0972 24.5423 17.0972 25.5076C17.0972 26.473 16.308 27.2556 15.3343 27.2556C14.3607 27.2556 13.5714 26.473 13.5714 25.5076C13.5714 24.5423 14.3607 23.7596 15.3343 23.7596ZM19.9729 18.4617C18.9946 18.5149 18.2357 19.3285 18.2583 20.2997V24.9949C18.2583 26.2692 18.8238 27.0428 19.6524 27.2076C20.1725 27.3122 20.7125 27.1792 21.1228 26.8455C21.5332 26.5118 21.7705 26.0129 21.769 25.4867V20.2187C21.7699 19.7483 21.5802 19.2972 21.2424 18.9668C20.9046 18.6365 20.4472 18.4545 19.9729 18.4617Z" fill="#E37400"/>
</g>
<defs>
<clipPath id="clip0_545_316">
<rect width="24" height="24" fill="white" transform="translate(8 8)"/>
</clipPath>
</defs>
</svg>
