<svg width="41" height="40" viewBox="0 0 41 40" fill="none" xmlns="http://www.w3.org/2000/svg">
<path d="M17.3892 18.8225C17.9777 17.905 18.3138 16.8103 18.2943 15.6366C18.2423 12.4959 15.633 10 12.4972 10H3.74253C3.33248 10 3 10.3331 3 10.7438V30.0298C3 30.4406 3.33248 30.7736 3.74253 30.7736H13.5219C17.1515 30.7736 20.1582 27.8594 20.1731 24.2235C20.1822 21.9951 19.0791 20.0195 17.3892 18.8225ZM6.84073 13.8474H12.572C13.6099 13.8474 14.4544 14.6933 14.4544 15.7331C14.4544 16.7728 13.61 17.6188 12.572 17.6188H6.84073V13.8474ZM13.6072 26.9262H6.84073V21.4662H13.6071C15.1098 21.4662 16.3324 22.6909 16.3324 24.1962C16.3324 25.7015 15.1099 26.9262 13.6072 26.9262Z" fill="white"/>
<path d="M37 22.8558C37 18.365 33.4667 14.7116 29.1236 14.7116C24.7804 14.7116 21.2471 18.3651 21.2471 22.8558C21.2471 27.3464 24.7805 31 29.1236 31C31.7589 31 34.2077 29.6467 35.674 27.3798C35.8568 27.0972 36.0229 26.8019 36.1703 26.4975C36.2772 26.2766 36.1149 26.0194 35.8697 26.0188L31.9979 26.0092C31.9123 26.009 31.8311 26.044 31.7697 26.1038C31.0385 26.8159 30.1422 27.1525 29.1236 27.1525C27.1994 27.1525 25.5864 25.7109 25.1849 23.789H36.2292C36.6549 23.789 37 23.4433 37 23.0169V22.8558ZM29.1236 18.559C30.5328 18.559 31.7749 19.3326 32.497 20.5013H25.7502C26.4722 19.3326 27.7144 18.559 29.1236 18.559Z" fill="white"/>
<path d="M32.3964 13.7557H25.4104C25.0845 13.7557 24.8202 13.491 24.8202 13.1645V11.4089C24.8202 11.0824 25.0845 10.8177 25.4104 10.8177H32.3964C32.7224 10.8177 32.9866 11.0824 32.9866 11.4089V13.1645C32.9866 13.4911 32.7224 13.7557 32.3964 13.7557Z" fill="white"/>
</svg>
