<svg width="16" height="16" viewBox="0 0 16 16" fill="none" xmlns="http://www.w3.org/2000/svg">
<path d="M3.22222 14C2.88611 14 2.59828 13.8826 2.35872 13.6478C2.11957 13.4126 2 13.13 2 12.8V4.4C2 4.07 2.11957 3.7876 2.35872 3.5528C2.59828 3.3176 2.88611 3.2 3.22222 3.2H3.83333V2.585C3.83333 2.415 3.8918 2.275 4.00872 2.165C4.12606 2.055 4.2713 2 4.44444 2C4.61759 2 4.76283 2.0574 4.88017 2.1722C4.99709 2.2874 5.05556 2.43 5.05556 2.6V3.2H9.94444V2.585C9.94444 2.415 10.0031 2.275 10.1204 2.165C10.2374 2.055 10.3824 2 10.5556 2C10.7287 2 10.8737 2.0574 10.9907 2.1722C11.108 2.2874 11.1667 2.43 11.1667 2.6V3.2H11.7778C12.1139 3.2 12.4017 3.3176 12.6413 3.5528C12.8804 3.7876 13 4.07 13 4.4V12.8C13 13.13 12.8804 13.4126 12.6413 13.6478C12.4017 13.8826 12.1139 14 11.7778 14H3.22222ZM3.22222 12.8H11.7778V6.8H3.22222V12.8Z" fill="#E9E9E9"/>
</svg>
