<svg width="56" height="56" viewBox="0 0 56 56" fill="none" xmlns="http://www.w3.org/2000/svg">
<path d="M43.7143 48H12.2857C9.91875 48 8 46.0813 8 43.7143V12.2857C8 9.91875 9.91875 8 12.2857 8H43.7143C46.0813 8 48 9.91875 48 12.2857V43.7143C48 46.0813 46.0813 48 43.7143 48ZM25.4388 39.2447L41.8673 22.8162C42.4252 22.2583 42.4252 21.3537 41.8673 20.7959L39.8471 18.7756C39.2892 18.2178 38.3846 18.2177 37.8267 18.7756L24.4286 32.1737L18.1733 25.9184C17.6154 25.3605 16.7109 25.3605 16.1529 25.9184L14.1327 27.9387C13.5748 28.4965 13.5748 29.4011 14.1327 29.9589L23.4184 39.2446C23.9763 39.8027 24.8808 39.8027 25.4388 39.2447Z" fill="#030F0F"/>
</svg>
