<svg width="40" height="40" viewBox="0 0 40 40" fill="none" xmlns="http://www.w3.org/2000/svg">
<rect x="0.5" y="0.5" width="39" height="39" rx="3.5" fill="#061B13"/>
<rect x="0.5" y="0.5" width="39" height="39" rx="3.5" stroke="#373D3D"/>
<path d="M26.7347 28.5714H13.2653C12.2509 28.5714 11.4286 27.7491 11.4286 26.7347V13.2653C11.4286 12.2509 12.2509 11.4286 13.2653 11.4286H26.7347C27.7491 11.4286 28.5714 12.2509 28.5714 13.2653V26.7347C28.5714 27.7491 27.7491 28.5714 26.7347 28.5714ZM18.9023 24.8192L25.9431 17.7784C26.1822 17.5393 26.1822 17.1516 25.9431 16.9125L25.0773 16.0467C24.8382 15.8076 24.4506 15.8076 24.2114 16.0467L18.4694 21.7887L15.7886 19.1079C15.5495 18.8688 15.1618 18.8688 14.9227 19.1079L14.0569 19.9737C13.8178 20.2128 13.8178 20.6005 14.0569 20.8396L18.0365 24.8191C18.2756 25.0583 18.6632 25.0583 18.9023 24.8192Z" fill="#B0F280"/>
</svg>
