<svg width="40" height="40" viewBox="0 0 40 40" fill="none" xmlns="http://www.w3.org/2000/svg">
<rect x="0.5" y="0.5" width="39" height="39" rx="3.5" fill="#061B13"/>
<rect x="0.5" y="0.5" width="39" height="39" rx="3.5" stroke="#373D3D"/>
<path d="M20 10.5714C14.7915 10.5714 10.5714 14.7915 10.5714 20C10.5714 25.2085 14.7915 29.4286 20 29.4286C25.2085 29.4286 29.4286 25.2085 29.4286 20C29.4286 14.7915 25.2085 10.5714 20 10.5714ZM22.1708 23.8817L18.8176 21.4447C18.6998 21.3572 18.6313 21.2204 18.6313 21.0759V14.6774C18.6313 14.4265 18.8366 14.2212 19.0875 14.2212H20.9124C21.1633 14.2212 21.3686 14.4265 21.3686 14.6774V19.9125L23.7828 21.669C23.9881 21.8173 24.0299 22.1024 23.8817 22.3077L22.8095 23.7828C22.6613 23.9843 22.3761 24.0299 22.1708 23.8817Z" fill="#B0F280"/>
</svg>
