<svg width="56" height="56" viewBox="0 0 56 56" fill="none" xmlns="http://www.w3.org/2000/svg">
<path d="M28 6C15.8468 6 6 15.8468 6 28C6 40.1532 15.8468 50 28 50C40.1532 50 50 40.1532 50 28C50 15.8468 40.1532 6 28 6ZM33.0653 37.0573L25.2411 31.371C24.9661 31.1669 24.8065 30.8476 24.8065 30.5105V15.5806C24.8065 14.9952 25.2855 14.5161 25.871 14.5161H30.129C30.7145 14.5161 31.1935 14.9952 31.1935 15.5806V27.796L36.8266 31.8944C37.3056 32.2403 37.4032 32.9056 37.0573 33.3847L34.5556 36.8266C34.2097 37.2968 33.5444 37.4032 33.0653 37.0573Z" fill="#030F0F"/>
</svg>
