<svg width="40" height="40" viewBox="0 0 40 40" fill="none" xmlns="http://www.w3.org/2000/svg">
<rect x="0.5" y="0.5" width="39" height="39" rx="3.5" fill="#061B13"/>
<rect x="0.5" y="0.5" width="39" height="39" rx="3.5" stroke="#373D3D"/>
<path d="M24.1905 17.9184C24.1905 15.0431 21.1426 12.7143 17.381 12.7143C13.6194 12.7143 10.5714 15.0431 10.5714 17.9184C10.5714 19.034 11.033 20.0618 11.8155 20.9107C11.3768 21.893 10.6533 22.6736 10.6435 22.6834C10.5714 22.7582 10.5518 22.8688 10.5944 22.9663C10.6369 23.0639 10.7286 23.1225 10.8333 23.1225C12.0316 23.1225 13.0235 22.7224 13.7372 22.3093C14.7914 22.82 16.0387 23.1225 17.381 23.1225C21.1426 23.1225 24.1905 20.7936 24.1905 17.9184ZM28.1845 25.074C28.967 24.2283 29.4286 23.1973 29.4286 22.0816C29.4286 19.9057 27.6771 18.042 25.1955 17.2646C25.225 17.4793 25.2381 17.6972 25.2381 17.9184C25.2381 21.3628 21.7122 24.1633 17.381 24.1633C17.0274 24.1633 16.6836 24.1373 16.3432 24.1015C17.3744 25.9717 19.797 27.2857 22.6191 27.2857C23.9613 27.2857 25.2086 26.9865 26.2628 26.4726C26.9765 26.8857 27.9685 27.2857 29.1667 27.2857C29.2714 27.2857 29.3664 27.2239 29.4057 27.1296C29.4482 27.0353 29.4286 26.9247 29.3566 26.8466C29.3467 26.8369 28.6232 26.0595 28.1845 25.074Z" fill="#B0F280"/>
</svg>
