<svg width="56" height="56" viewBox="0 0 56 56" fill="none" xmlns="http://www.w3.org/2000/svg">
<path d="M37.7778 23.1429C37.7778 16.4339 30.666 11 21.8889 11C13.1118 11 6 16.4339 6 23.1429C6 25.746 7.07708 28.1442 8.90278 30.125C7.87917 32.417 6.19097 34.2384 6.16806 34.2612C6 34.4357 5.95417 34.6938 6.05347 34.9214C6.15278 35.1491 6.36667 35.2857 6.61111 35.2857C9.40694 35.2857 11.7215 34.3522 13.3868 33.3884C15.8465 34.5799 18.7569 35.2857 21.8889 35.2857C30.666 35.2857 37.7778 29.8518 37.7778 23.1429ZM47.0972 39.8393C48.9229 37.8661 50 35.4603 50 32.8571C50 27.7799 45.9132 23.4312 40.1229 21.6174C40.1917 22.1183 40.2222 22.6268 40.2222 23.1429C40.2222 31.1799 31.9951 37.7143 21.8889 37.7143C21.0639 37.7143 20.2618 37.6536 19.4674 37.5701C21.8736 41.9339 27.5264 45 34.1111 45C37.2431 45 40.1535 44.3018 42.6132 43.1027C44.2785 44.0665 46.5931 45 49.3889 45C49.6333 45 49.8549 44.8558 49.9465 44.6357C50.0458 44.4156 50 44.1576 49.8319 43.9754C49.809 43.9527 48.1208 42.1388 47.0972 39.8393Z" fill="#030F0F"/>
</svg>
