<svg width="56" height="56" viewBox="0 0 56 56" fill="none" xmlns="http://www.w3.org/2000/svg">
<rect width="56" height="56" rx="28" fill="#1B73BA"/>
<g clip-path="url(#clip0_317_100)">
<path d="M18.0096 39.0668L16 14.047L40 14.0972L37.875 39.0668L28.0906 41.953L18.0096 39.0668Z" fill="#1B73BA"/>
<path d="M28.0906 39.5367V16.4298L37.9739 16.4633L36.2115 37.137L28.0906 39.5367Z" fill="#1C88C7"/>
<path d="M35.5195 19.3833H20.3157L20.7275 22.4036H27.9423L20.8429 25.5081L21.2546 28.4279H31.7145L31.3355 32.5054L27.794 33.2103L24.5821 32.3714L24.3349 30.0556H21.3864L21.7816 34.8717L28.107 36.6672L34.1689 34.7039L34.9431 25.2899H28.5351L35.5193 22.3366L35.5195 19.3833Z" fill="white"/>
</g>
<defs>
<clipPath id="clip0_317_100">
<rect width="24" height="28" fill="white" transform="translate(16 14)"/>
</clipPath>
</defs>
</svg>
