<svg width="1683" height="1683" viewBox="0 0 1683 1683" fill="none" xmlns="http://www.w3.org/2000/svg">
<path d="M1683 112.281L0.000160316 112.281M1570.72 1683L1570.72 -4.90795e-06M1683 209.564L0.000156064 209.564M1473.44 1683L1473.44 -9.16034e-06M1683 306.848L0.000151811 306.847M1376.15 1683L1376.15 -1.34127e-05M1683 404.131L0.000147559 404.131M1278.87 1683L1278.87 -1.76651e-05M1683 501.414L0.000143307 501.414M1181.59 1683L1181.59 -2.19175e-05M1683 598.697L0.000139054 598.697M1084.3 1683L1084.3 -2.61699e-05M1683 695.981L0.000134802 695.98M987.02 1683L987.02 -3.04223e-05M1683 793.264L0.000130549 793.264M889.736 1683L889.736 -3.46746e-05M1683 890.547L0.000126297 890.547M792.453 1683L792.453 -3.8927e-05M1683 987.83L0.000122045 987.83M695.17 1683L695.17 -4.31794e-05M1683 1085.11L0.000117792 1085.11M597.887 1683L597.887 -4.74318e-05M1683 1182.4L0.00011354 1182.4M500.603 1683L500.604 -5.16842e-05M1683 1279.68L0.000109287 1279.68M403.32 1683L403.32 -5.59366e-05M1683 1376.96L0.000105035 1376.96M306.037 1683L306.037 -6.0189e-05M1683 1474.25L0.000100783 1474.25M208.754 1683L208.754 -6.44413e-05M1683 1571.53L9.65303e-05 1571.53M111.47 1683L111.471 -6.86937e-05" stroke="url(#paint0_linear_471_7)"/>
<defs>
<linearGradient id="paint0_linear_471_7" x1="1683" y1="841.5" x2="8.52872e-05" y2="841.5" gradientUnits="userSpaceOnUse">
<stop stop-color="#DEE8FF" stop-opacity="0"/>
<stop offset="0.5" stop-color="#DEE8FF"/>
<stop offset="1" stop-color="#DEE8FF" stop-opacity="0"/>
</linearGradient>
</defs>
</svg>
