<svg width="56" height="56" viewBox="0 0 56 56" fill="none" xmlns="http://www.w3.org/2000/svg">
<path d="M48.8333 6H7.16667C4.86632 6 3 7.84766 3 10.125V37.625C3 39.9023 4.86632 41.75 7.16667 41.75H23.8333L22.4444 45.875H16.1944C15.0399 45.875 14.1111 46.7945 14.1111 47.9375C14.1111 49.0805 15.0399 50 16.1944 50H39.8056C40.9601 50 41.8889 49.0805 41.8889 47.9375C41.8889 46.7945 40.9601 45.875 39.8056 45.875H33.5556L32.1667 41.75H48.8333C51.1337 41.75 53 39.9023 53 37.625V10.125C53 7.84766 51.1337 6 48.8333 6ZM47.4444 36.25H8.55556V11.5H47.4444V36.25Z" fill="#030F0F"/>
</svg>
