<svg width="40" height="40" viewBox="0 0 40 40" fill="none" xmlns="http://www.w3.org/2000/svg">
<rect x="0.5" y="0.5" width="39" height="39" rx="3.5" fill="#061B13"/>
<rect x="0.5" y="0.5" width="39" height="39" rx="3.5" stroke="#373D3D"/>
<path d="M28.9286 10.5714H11.0714C10.0856 10.5714 9.28571 11.3633 9.28571 12.3393V24.125C9.28571 25.101 10.0856 25.8929 11.0714 25.8929H18.2143L17.619 27.6607H14.9405C14.4457 27.6607 14.0476 28.0548 14.0476 28.5447C14.0476 29.0345 14.4457 29.4286 14.9405 29.4286H25.0595C25.5543 29.4286 25.9524 29.0345 25.9524 28.5447C25.9524 28.0548 25.5543 27.6607 25.0595 27.6607H22.381L21.7857 25.8929H28.9286C29.9144 25.8929 30.7143 25.101 30.7143 24.125V12.3393C30.7143 11.3633 29.9144 10.5714 28.9286 10.5714ZM28.3333 23.5357H11.6667V12.9286H28.3333V23.5357Z" fill="#B0F280"/>
</svg>
