<svg width="40" height="40" viewBox="0 0 40 40" fill="none" xmlns="http://www.w3.org/2000/svg">
<rect x="0.5" y="0.5" width="39" height="39" rx="3.5" fill="#061B13"/>
<rect x="0.5" y="0.5" width="39" height="39" rx="3.5" stroke="#373D3D"/>
<g clip-path="url(#clip0_545_362)">
<mask id="mask0_545_362" style="mask-type:luminance" maskUnits="userSpaceOnUse" x="8" y="8" width="24" height="24">
<path d="M32 20C32 13.3726 26.6274 8 20 8C13.3726 8 8 13.3726 8 20C8 26.6274 13.3726 32 20 32C26.6274 32 32 26.6274 32 20Z" fill="white"/>
</mask>
<g mask="url(#mask0_545_362)">
<path d="M32 20C32 13.3726 26.6274 8 20 8C13.3726 8 8 13.3726 8 20C8 26.6274 13.3726 32 20 32C26.6274 32 32 26.6274 32 20Z" fill="white"/>
<mask id="mask1_545_362" style="mask-type:luminance" maskUnits="userSpaceOnUse" x="8" y="8" width="24" height="24">
<path d="M32 8H8V32H32V8Z" fill="white"/>
</mask>
<g mask="url(#mask1_545_362)">
<path d="M20 8C13.3719 8 8 13.3719 8 20C8 26.6258 13.3719 32 20 32C26.6281 32 32 26.6281 32 20C31.9979 13.3719 26.6258 8 20 8ZM17.0006 24.9983H15.0017V14.9995H17.0006V24.9983ZM24.9983 24.9983H18.9995V22.9994H24.9983V24.9983ZM24.9983 20.9984H18.9995V18.9995H24.9983V20.9984ZM24.9983 16.9984H18.9995V14.9995H24.9983V16.9984Z" fill="#92003B"/>
</g>
</g>
</g>
<defs>
<clipPath id="clip0_545_362">
<rect width="24" height="24" fill="white" transform="translate(8 8)"/>
</clipPath>
</defs>
</svg>
