<svg width="56" height="56" viewBox="0 0 56 56" fill="none" xmlns="http://www.w3.org/2000/svg">
<path d="M6 20.521V19.1612C6 18.0346 6.9234 17.1214 8.0625 17.1214H39V13.0418C39 11.2258 41.2257 10.3185 42.5209 11.5994L49.3959 18.3987C50.2014 19.1953 50.2014 20.4869 49.3959 21.2834L42.5209 28.0827C41.2306 29.3586 39 28.4639 39 26.6404V22.5608H8.0625C6.9234 22.5608 6 21.6476 6 20.521ZM47.9375 33.4397H17V29.3601C17 27.5486 14.7775 26.6336 13.4791 27.9177L6.60405 34.717C5.79865 35.5136 5.79865 36.8051 6.60405 37.6017L13.4791 44.4009C14.7705 45.6781 17 44.7806 17 42.9586V38.8791H47.9375C49.0766 38.8791 50 37.9658 50 36.8393V35.4794C50 34.3529 49.0766 33.4397 47.9375 33.4397Z" fill="#030F0F"/>
</svg>
