<svg width="40" height="40" viewBox="0 0 40 40" fill="none" xmlns="http://www.w3.org/2000/svg">
<rect x="0.5" y="0.5" width="39" height="39" rx="3.5" fill="#061B13"/>
<rect x="0.5" y="0.5" width="39" height="39" rx="3.5" stroke="#373D3D"/>
<path d="M10.5714 16.7947V16.2119C10.5714 15.7291 10.9672 15.3377 11.4554 15.3377H24.7143V13.5894C24.7143 12.8111 25.6682 12.4222 26.2233 12.9712L29.1697 15.8852C29.5149 16.2266 29.5149 16.7801 29.1697 17.1215L26.2233 20.0354C25.6703 20.5822 24.7143 20.1988 24.7143 19.4173V17.6689H11.4554C10.9672 17.6689 10.5714 17.2775 10.5714 16.7947ZM28.5447 22.3313H15.2857V20.5829C15.2857 19.8065 14.3332 19.4144 13.7768 19.9647L10.8303 22.8787C10.4851 23.2201 10.4851 23.7736 10.8303 24.115L13.7768 27.029C14.3302 27.5763 15.2857 27.1917 15.2857 26.4109V24.6625H28.5447C29.0328 24.6625 29.4286 24.2711 29.4286 23.7883V23.2055C29.4286 22.7227 29.0328 22.3313 28.5447 22.3313Z" fill="#B0F280"/>
</svg>
