<svg width="48" height="48" viewBox="0 0 48 48" fill="none" xmlns="http://www.w3.org/2000/svg">
<path d="M27 18C30.312 18 33 20.688 33 24L33 30L21 30L21 24C21 20.688 23.688 18 27 18Z" fill="#717BBC"/>
<path d="M21 12C21 8.688 23.688 6 27 6H33V18H27C23.688 18 21 15.312 21 12Z" fill="#FF575A"/>
<path d="M27 42C23.688 42 21 39.312 21 36L21 30L33 30L33 36C33 39.312 30.312 42 27 42Z" fill="#FF575A"/>
<path d="M33 6H39C42.312 6 45 8.688 45 12C45 15.312 42.312 18 39 18H33V6Z" fill="#717BBC"/>
<path d="M45 24C45 27.312 42.312 30 39 30C35.688 30 33 27.312 33 24C33 20.688 35.688 18 39 18C42.312 18 45 20.688 45 24Z" fill="#FF575A"/>
<path d="M9.48 38.52C8.45333 38.52 7.44667 38.3467 6.46 38C5.48667 37.6533 4.6 37.14 3.8 36.46L6.92 32.7C7.21333 32.94 7.57333 33.16 8 33.36C8.42667 33.5467 8.92 33.64 9.48 33.64C10.2133 33.64 10.88 33.4533 11.48 33.08C12.08 32.6933 12.56 32.1933 12.92 31.58C13.2933 30.9533 13.48 30.2733 13.48 29.54V10H18.36V29.54C18.36 31.18 17.96 32.68 17.16 34.04C16.36 35.3867 15.2867 36.4733 13.94 37.3C12.5933 38.1133 11.1067 38.52 9.48 38.52Z" fill="white"/>
</svg>
