<svg width="80" height="80" viewBox="0 0 80 80" fill="none" xmlns="http://www.w3.org/2000/svg">
<rect x="0.5" y="0.5" width="79" height="79" rx="39.5" fill="#B0F280"/>
<rect x="0.5" y="0.5" width="79" height="79" rx="39.5" stroke="white"/>
<path d="M27.31 62V57.032C27.922 57.032 28.48 56.882 28.984 56.582C29.488 56.294 29.89 55.898 30.19 55.394C30.49 54.89 30.64 54.332 30.64 53.72V35H35.608V53.72C35.608 55.244 35.236 56.63 34.492 57.878C33.76 59.126 32.764 60.122 31.504 60.866C30.256 61.622 28.858 62 27.31 62ZM33.16 32.93C32.44 32.93 31.834 32.69 31.342 32.21C30.85 31.73 30.604 31.136 30.604 30.428C30.604 29.72 30.85 29.126 31.342 28.646C31.834 28.166 32.434 27.926 33.142 27.926C33.85 27.926 34.444 28.166 34.924 28.646C35.416 29.126 35.662 29.72 35.662 30.428C35.662 31.136 35.422 31.73 34.942 32.21C34.474 32.69 33.88 32.93 33.16 32.93ZM45.4532 31.508V35H50.2232V39.968H45.4532V53H40.4852V39.968H38.6852V35H40.4852V31.508C40.4852 30.416 40.7552 29.426 41.2952 28.538C41.8352 27.638 42.5552 26.918 43.4552 26.378C44.3672 25.838 45.3692 25.568 46.4612 25.568C47.2652 25.568 48.0572 25.736 48.8372 26.072C49.6172 26.396 50.3132 26.906 50.9252 27.602L47.3612 31.112C47.2772 30.92 47.1512 30.776 46.9832 30.68C46.8152 30.584 46.6412 30.536 46.4612 30.536C46.1852 30.536 45.9452 30.632 45.7412 30.824C45.5492 31.004 45.4532 31.232 45.4532 31.508Z" fill="#050C0D"/>
</svg>
