<svg width="56" height="56" viewBox="0 0 56 56" fill="none" xmlns="http://www.w3.org/2000/svg">
<rect width="56" height="56" rx="28" fill="#424652"/>
<g clip-path="url(#clip0_317_56)">
<path d="M22 46C25.312 46 28 43.312 28 40V34H22C18.688 34 16 36.688 16 40C16 43.312 18.688 46 22 46Z" fill="#0ACF83"/>
<path d="M16 28C16 24.688 18.688 22 22 22H28V34H22C18.688 34 16 31.312 16 28Z" fill="#A259FF"/>
<path d="M16 16C16 12.688 18.688 10 22 10H28V22H22C18.688 22 16 19.312 16 16Z" fill="#F24E1E"/>
<path d="M28 10H34C37.312 10 40 12.688 40 16C40 19.312 37.312 22 34 22H28V10Z" fill="#FF7262"/>
<path d="M40 28C40 31.312 37.312 34 34 34C30.688 34 28 31.312 28 28C28 24.688 30.688 22 34 22C37.312 22 40 24.688 40 28Z" fill="#1ABCFE"/>
</g>
<defs>
<clipPath id="clip0_317_56">
<rect width="24" height="36" fill="white" transform="translate(16 10)"/>
</clipPath>
</defs>
</svg>
