<svg width="40" height="39" viewBox="0 0 40 39" fill="none" xmlns="http://www.w3.org/2000/svg">
<rect x="0.5" y="0.5" width="39" height="38" rx="3.5" fill="#061B13"/>
<rect x="0.5" y="0.5" width="39" height="38" rx="3.5" stroke="#373D3D"/>
<g clip-path="url(#clip0_545_233)">
<path d="M32 19.5C32 12.8726 26.6274 7.5 20 7.5C13.3726 7.5 8 12.8726 8 19.5C8 26.1274 13.3726 31.5 20 31.5C26.6274 31.5 32 26.1274 32 19.5Z" fill="#424652"/>
<mask id="mask0_545_233" style="mask-type:luminance" maskUnits="userSpaceOnUse" x="14" y="11" width="12" height="17">
<path d="M25.1429 11.7857H14.8571V27.2143H25.1429V11.7857Z" fill="white"/>
</mask>
<g mask="url(#mask0_545_233)">
<path d="M17.4286 27.2143C18.848 27.2143 20 26.0623 20 24.6429V22.0714H17.4286C16.0091 22.0714 14.8571 23.2234 14.8571 24.6429C14.8571 26.0623 16.0091 27.2143 17.4286 27.2143Z" fill="#0ACF83"/>
<path d="M14.8571 19.5C14.8571 18.0806 16.0091 16.9286 17.4286 16.9286H20V22.0714H17.4286C16.0091 22.0714 14.8571 20.9194 14.8571 19.5Z" fill="#A259FF"/>
<path d="M14.8571 14.3571C14.8571 12.9377 16.0091 11.7857 17.4286 11.7857H20V16.9286H17.4286C16.0091 16.9286 14.8571 15.7766 14.8571 14.3571Z" fill="#F24E1E"/>
<path d="M20 11.7857H22.5714C23.9909 11.7857 25.1429 12.9377 25.1429 14.3571C25.1429 15.7766 23.9909 16.9286 22.5714 16.9286H20V11.7857Z" fill="#FF7262"/>
<path d="M25.1429 19.5C25.1429 20.9194 23.9909 22.0714 22.5714 22.0714C21.152 22.0714 20 20.9194 20 19.5C20 18.0806 21.152 16.9286 22.5714 16.9286C23.9909 16.9286 25.1429 18.0806 25.1429 19.5Z" fill="#1ABCFE"/>
</g>
</g>
<defs>
<clipPath id="clip0_545_233">
<rect width="24" height="24" fill="white" transform="translate(8 7.5)"/>
</clipPath>
</defs>
</svg>
