<svg width="56" height="56" viewBox="0 0 56 56" fill="none" xmlns="http://www.w3.org/2000/svg">
<rect width="56" height="56" rx="28" fill="white"/>
<path d="M41.9258 23.5643C41.9258 29.1459 39.4379 32.0856 36.7397 34.0193L36.2154 34.3815L35.6896 34.7211L35.1658 35.0409L34.6479 35.3435L32.6891 36.4427C32.5871 36.501 32.4866 36.559 32.3875 36.6169L31.8108 36.9643C29.7626 38.2428 28.46 39.6229 28.3506 42.747L28.3431 43.184H22.5468C22.5468 37.7825 24.8774 34.855 27.4732 32.9191L27.9952 32.5447C28.0826 32.4844 28.1702 32.425 28.2578 32.3666L28.7836 32.0269L29.3073 31.7071L30.3337 31.1166L31.7838 30.3054L32.3782 29.9578C34.5894 28.6273 36.008 27.2674 36.1223 24.0013L36.1298 23.5643H41.9258ZM34.3794 13C34.3794 18.401 32.0493 21.3287 29.4535 23.2646L28.9314 23.639C28.844 23.6994 28.7565 23.7587 28.6689 23.8171L28.143 24.1568L27.6193 24.4766L26.5927 25.0672L25.1425 25.8785L24.548 26.2261C24.4519 26.284 24.3572 26.3419 24.2641 26.4L23.7244 26.7525C21.989 27.9439 20.9034 29.3427 20.8039 32.1828L20.7965 32.6198H15C15 26.8582 17.6511 23.9117 20.448 21.9808L20.9735 21.6302L21.4988 21.3007L22.0201 20.9898L24.2369 19.7411L24.8314 19.3934C27.0426 18.0628 28.4611 16.7029 28.5755 13.437L28.583 13H34.3794Z" fill="#FF3C00"/>
</svg>
