<svg width="40" height="40" viewBox="0 0 40 40" fill="none" xmlns="http://www.w3.org/2000/svg">
<rect x="0.5" y="0.5" width="39" height="39" rx="3.5" fill="#061B13"/>
<rect x="0.5" y="0.5" width="39" height="39" rx="3.5" stroke="#373D3D"/>
<g clip-path="url(#clip0_545_323)">
<path d="M32 20C32 13.3726 26.6274 8 20 8C13.3726 8 8 13.3726 8 20C8 26.6274 13.3726 32 20 32C26.6274 32 32 26.6274 32 20Z" fill="white"/>
<path d="M25.9682 18.099C25.9682 20.4911 24.902 21.751 23.7456 22.5797L23.5209 22.7349L23.2956 22.8805L23.0711 23.0175L22.8491 23.1472L22.0096 23.6183C21.9659 23.6433 21.9228 23.6681 21.8804 23.693L21.6332 23.8418C20.7554 24.3898 20.1972 24.9812 20.1503 26.3201L20.1471 26.5074H17.6629C17.6629 24.1925 18.6618 22.9379 19.7742 22.1082L19.998 21.9477C20.0354 21.9219 20.073 21.8964 20.1105 21.8714L20.3358 21.7258L20.5603 21.5888L21.0002 21.3357L21.6216 20.988L21.8764 20.8391C22.824 20.2688 23.432 19.686 23.481 18.2863L23.4842 18.099H25.9682ZM22.734 13.5714C22.734 15.8861 21.7354 17.1409 20.6229 17.9705L20.3992 18.131C20.3617 18.1569 20.3242 18.1823 20.2867 18.2073L20.0613 18.3529L19.8369 18.49L19.3969 18.7431L18.7754 19.0908L18.5206 19.2398C18.4794 19.2646 18.4388 19.2894 18.3989 19.3143L18.1676 19.4654C17.4239 19.976 16.9586 20.5754 16.916 21.7926L16.9128 21.9799H14.4286C14.4286 19.5107 15.5648 18.2479 16.7634 17.4203L16.9887 17.2701L17.2138 17.1289L17.4372 16.9956L18.3873 16.4605L18.642 16.3115C19.5897 15.7412 20.1976 15.1584 20.2467 13.7587L20.2499 13.5714H22.734Z" fill="#FF3C00"/>
</g>
<defs>
<clipPath id="clip0_545_323">
<rect width="24" height="24" fill="white" transform="translate(8 8)"/>
</clipPath>
</defs>
</svg>
