<svg width="40" height="40" viewBox="0 0 40 40" fill="none" xmlns="http://www.w3.org/2000/svg">
<rect x="0.5" y="0.5" width="39" height="39" rx="3.5" fill="#061B13"/>
<rect x="0.5" y="0.5" width="39" height="39" rx="3.5" stroke="#373D3D"/>
<g clip-path="url(#clip0_545_329)">
<path d="M32 20C32 13.3726 26.6274 8 20 8C13.3726 8 8 13.3726 8 20C8 26.6274 13.3726 32 20 32C26.6274 32 32 26.6274 32 20Z" fill="#E34F26"/>
<mask id="mask0_545_329" style="mask-type:luminance" maskUnits="userSpaceOnUse" x="14" y="14" width="12" height="12">
<path d="M25.1429 14H14.8571V26H25.1429V14Z" fill="white"/>
</mask>
<g mask="url(#mask0_545_329)">
<path d="M15.7184 24.743L14.8571 14.0201L25.1429 14.0416L24.2321 24.743L20.0388 25.9799L15.7184 24.743Z" fill="#E34F26"/>
<path d="M20.0388 24.9444V15.0413L24.2745 15.0556L23.5192 23.9159L20.0388 24.9444Z" fill="#EF652A"/>
<path d="M23.1098 17.5153L23.2298 16.2063H16.7138L17.0738 20.2194H21.5708L21.3944 21.931L19.9542 22.3265L18.4929 21.895L18.4153 20.8738H17.1233L17.2998 22.9594L19.9541 23.7145L22.6297 22.9594L22.9897 18.8889H18.267L18.1328 17.5153H23.1098Z" fill="white"/>
</g>
</g>
<defs>
<clipPath id="clip0_545_329">
<rect width="24" height="24" fill="white" transform="translate(8 8)"/>
</clipPath>
</defs>
</svg>
