<svg width="40" height="40" viewBox="0 0 40 40" fill="none" xmlns="http://www.w3.org/2000/svg">
<rect x="0.5" y="0.5" width="39" height="39" rx="3.5" fill="#061B13"/>
<rect x="0.5" y="0.5" width="39" height="39" rx="3.5" stroke="#373D3D"/>
<g clip-path="url(#clip0_545_357)">
<path d="M32 20C32 13.3726 26.6274 8 20 8C13.3726 8 8 13.3726 8 20C8 26.6274 13.3726 32 20 32C26.6274 32 32 26.6274 32 20Z" fill="#F7DF1E"/>
<path d="M21.7512 22.0571C22.2412 22.8857 22.8898 23.3 23.6969 23.3C24.7058 23.3 25.2103 22.9143 25.2103 22.1429C25.2103 21.6714 24.5617 21.2429 23.524 20.8143C21.5926 20.1857 20.6414 19.1143 20.6702 17.6C20.6702 16.0571 21.8376 14.8571 23.6969 14.8571C25.0805 14.8571 26.0606 15.4143 26.6371 16.5286L25.0373 17.5571C24.6914 16.9286 24.2446 16.6286 23.6969 16.6571C23.0627 16.6857 22.7312 16.9857 22.7024 17.5571C22.7024 18.1571 23.0915 18.4143 24.3887 18.9714C26.248 19.7 27.2857 20.5143 27.2857 22.2714C27.1992 24.1286 26.0606 25.0857 23.8699 25.1429C22.0538 25.1429 20.7711 24.4429 20.0216 23.0429L21.7512 22.0571ZM14.4006 22.2286C14.7465 22.7857 14.9627 23.3 15.8275 23.3C16.5193 23.3 16.8652 22.8714 16.8652 22.0143V14.9H18.9407V21.9286C18.9118 23.9571 17.8741 24.9857 15.8275 25.0143C14.2997 24.9857 13.262 24.3572 12.7143 23.1286L14.4006 22.2286Z" fill="black"/>
</g>
<defs>
<clipPath id="clip0_545_357">
<rect width="24" height="24" fill="white" transform="translate(8 8)"/>
</clipPath>
</defs>
</svg>
