<svg width="56" height="56" viewBox="0 0 56 56" fill="none" xmlns="http://www.w3.org/2000/svg">
<rect width="56" height="56" rx="28" fill="#F7DF1E"/>
<path d="M32.0861 32.8C33.2295 34.7333 34.7428 35.7 36.6261 35.7C38.9802 35.7 40.1573 34.8 40.1573 33C40.1573 31.9 38.6439 30.9 36.2226 29.9C31.7161 28.4333 29.4965 25.9333 29.5638 22.4C29.5638 18.8 32.2878 16 36.6261 16C39.8546 16 42.1414 17.3 43.4866 19.9L39.7537 22.3C38.9466 20.8333 37.9041 20.1333 36.6261 20.2C35.1464 20.2667 34.3729 20.9667 34.3056 22.3C34.3056 23.7 35.2136 24.3 38.2404 25.6C42.5786 27.3 45 29.2 45 33.3C44.7982 37.6333 42.1414 39.8667 37.0297 40C32.7923 40 29.7992 38.3667 28.0504 35.1L32.0861 32.8ZM14.9347 33.2C15.7418 34.5 16.2463 35.7 18.2641 35.7C19.8783 35.7 20.6855 34.7 20.6855 32.7V16.1H25.5282V32.5C25.4609 37.2333 23.0396 39.6333 18.2641 39.7C14.6993 39.6333 12.2779 38.1667 11 35.3L14.9347 33.2Z" fill="black"/>
</svg>
