<svg width="56" height="56" viewBox="0 0 56 56" fill="none" xmlns="http://www.w3.org/2000/svg">
<path d="M21.1869 45.0449C21.1878 45.5855 21.3463 46.1148 21.6437 46.5652L23.1003 48.7728C23.3491 49.1502 23.6866 49.4598 24.0827 49.6739C24.4788 49.888 24.9213 50 25.3707 50H30.6301C31.0796 50 31.522 49.888 31.9181 49.6739C32.3143 49.4598 32.6518 49.1502 32.9006 48.7728L34.3571 46.5652C34.6544 46.1148 34.8133 45.586 34.8139 45.0449L34.8173 41.7493H21.1827L21.1869 45.0449ZM13 21.1248C13 24.9377 14.402 28.4164 16.7125 31.0744C18.1205 32.6943 20.3227 36.0784 21.1622 38.9332C21.1656 38.9555 21.1682 38.9779 21.1716 39.0002H34.8284C34.8318 38.9779 34.8344 38.9564 34.8378 38.9332C35.6773 36.0784 37.8795 32.6943 39.2875 31.0744C41.598 28.4164 43 24.9377 43 21.1248C43 12.7555 36.2594 5.97429 27.9531 6.00007C19.2591 6.02671 13 13.1302 13 21.1248ZM28 14.2499C24.2406 14.2499 21.1818 17.3341 21.1818 21.1248C21.1818 21.8844 20.5716 22.4997 19.8182 22.4997C19.0648 22.4997 18.4545 21.8844 18.4545 21.1248C18.4545 15.8174 22.7364 11.5 28 11.5C28.7534 11.5 29.3636 12.1153 29.3636 12.8749C29.3636 13.6346 28.7534 14.2499 28 14.2499Z" fill="#030F0F"/>
</svg>
