<svg width="40" height="40" viewBox="0 0 40 40" fill="none" xmlns="http://www.w3.org/2000/svg">
<rect x="0.5" y="0.5" width="39" height="39" rx="3.5" fill="#061B13"/>
<rect x="0.5" y="0.5" width="39" height="39" rx="3.5" stroke="#373D3D"/>
<path d="M17.0801 27.305C17.0805 27.5366 17.1484 27.7635 17.2759 27.9565L17.9001 28.9027C18.0068 29.0644 18.1514 29.1971 18.3212 29.2888C18.4909 29.3806 18.6806 29.4286 18.8732 29.4286H21.1272C21.3198 29.4286 21.5094 29.3806 21.6792 29.2888C21.849 29.1971 21.9936 29.0644 22.1002 28.9027L22.7245 27.9565C22.8519 27.7635 22.92 27.5369 22.9202 27.305L22.9217 25.8926H17.0783L17.0801 27.305ZM13.5714 17.0535C13.5714 18.6876 14.1723 20.1785 15.1625 21.3176C15.7659 22.0118 16.7097 23.4622 17.0695 24.6857C17.071 24.6952 17.0721 24.7048 17.0735 24.7144H22.9265C22.9279 24.7048 22.929 24.6956 22.9305 24.6857C23.2903 23.4622 24.2341 22.0118 24.8375 21.3176C25.8277 20.1785 26.4286 18.6876 26.4286 17.0535C26.4286 13.4666 23.5397 10.5604 19.9799 10.5715C16.2539 10.5829 13.5714 13.6272 13.5714 17.0535ZM20 14.1071C18.3888 14.1071 17.0779 15.4289 17.0779 17.0535C17.0779 17.3791 16.8164 17.6428 16.4935 17.6428C16.1706 17.6428 15.9091 17.3791 15.9091 17.0535C15.9091 14.7789 17.7442 12.9286 20 12.9286C20.3229 12.9286 20.5844 13.1923 20.5844 13.5178C20.5844 13.8434 20.3229 14.1071 20 14.1071Z" fill="#B0F280"/>
</svg>
