<svg width="41" height="40" viewBox="0 0 41 40" fill="none" xmlns="http://www.w3.org/2000/svg">
<path d="M7 10.904C7 10.0623 7.2928 9.36783 7.87838 8.82071C8.46396 8.27356 9.22523 8 10.1622 8C11.0824 8 11.8269 8.26934 12.3958 8.80808C12.9813 9.36364 13.2741 10.0875 13.2741 10.9798C13.2741 11.7879 12.9897 12.4613 12.4208 13C11.8353 13.5556 11.0656 13.8333 10.112 13.8333H10.0869C9.16666 13.8333 8.42214 13.5556 7.85328 13C7.28442 12.4444 7 11.7458 7 10.904ZM7.32625 33V16.1313H12.8977V33H7.32625ZM15.9846 33H21.556V23.5808C21.556 22.9916 21.6229 22.537 21.7568 22.2172C21.991 21.6448 22.3465 21.1608 22.8234 20.7652C23.3002 20.3695 23.8983 20.1717 24.6178 20.1717C26.4916 20.1717 27.4286 21.4428 27.4286 23.9848V33H33V23.3283C33 20.8367 32.4144 18.947 31.2432 17.6591C30.0721 16.3712 28.5245 15.7273 26.6004 15.7273C24.4421 15.7273 22.7606 16.6616 21.556 18.5303V18.5808H21.5309L21.556 18.5303V16.1313H15.9846C16.018 16.67 16.0347 18.3451 16.0347 21.1566C16.0347 23.968 16.018 27.9158 15.9846 33Z" fill="white"/>
</svg>
