<svg width="40" height="40" viewBox="0 0 40 40" fill="none" xmlns="http://www.w3.org/2000/svg">
<rect x="0.5" y="0.5" width="39" height="39" rx="3.5" fill="#061B13"/>
<rect x="0.5" y="0.5" width="39" height="39" rx="3.5" stroke="#373D3D"/>
<path d="M24.2 10.5714H15.8C14.8063 10.5714 14 11.3633 14 12.3393V27.6607C14 28.6367 14.8063 29.4286 15.8 29.4286H24.2C25.1938 29.4286 26 28.6367 26 27.6607V12.3393C26 11.3633 25.1938 10.5714 24.2 10.5714ZM20 28.25C19.3363 28.25 18.8 27.7233 18.8 27.0714C18.8 26.4195 19.3363 25.8929 20 25.8929C20.6638 25.8929 21.2 26.4195 21.2 27.0714C21.2 27.7233 20.6638 28.25 20 28.25Z" fill="#B0F280"/>
</svg>
