<svg width="56" height="56" viewBox="0 0 56 56" fill="none" xmlns="http://www.w3.org/2000/svg">
<path d="M48.7882 18.2058L44.8263 22.1676C44.4224 22.5716 43.7692 22.5716 43.3653 22.1676L33.8258 12.6282C33.4219 12.2243 33.4219 11.5711 33.8258 11.1672L37.7877 7.20532C39.3948 5.59823 42.0074 5.59823 43.6231 7.20532L48.7882 12.3704C50.4039 13.9775 50.4039 16.5901 48.7882 18.2058ZM30.4225 14.5705L7.8543 37.1385L6.03234 47.5804C5.78311 48.9898 7.01207 50.2102 8.42151 49.9695L18.8634 48.139L41.4316 25.5709C41.8356 25.167 41.8356 24.5138 41.4316 24.1099L31.8921 14.5705C31.4796 14.1665 30.8265 14.1665 30.4225 14.5705ZM16.6633 35.2049C16.1906 34.7322 16.1906 33.9759 16.6633 33.5032L29.8983 20.2683C30.371 19.7957 31.1273 19.7957 31.5999 20.2683C32.0726 20.741 32.0726 21.4973 31.5999 21.97L18.3649 35.2049C17.8923 35.6775 17.136 35.6775 16.6633 35.2049ZM13.5608 42.4325H17.686V45.5522L12.1428 46.5233L9.47 43.8505L10.4411 38.3073H13.5608V42.4325Z" fill="#030F0F"/>
</svg>
