<svg width="40" height="40" viewBox="0 0 40 40" fill="none" xmlns="http://www.w3.org/2000/svg">
<rect x="0.5" y="0.5" width="39" height="39" rx="3.5" fill="#061B13"/>
<rect x="0.5" y="0.5" width="39" height="39" rx="3.5" stroke="#373D3D"/>
<path d="M28.9093 15.8025L27.2113 17.5004C27.0382 17.6735 26.7583 17.6735 26.5851 17.5004L22.4968 13.4121C22.3237 13.239 22.3237 12.9591 22.4968 12.786L24.1947 11.088C24.8835 10.3993 26.0032 10.3993 26.6956 11.088L28.9093 13.3016C29.6017 13.9904 29.6017 15.11 28.9093 15.8025ZM21.0382 14.2445L11.3661 23.9165L10.5853 28.3916C10.4785 28.9956 11.0052 29.5187 11.6092 29.4155L16.0843 28.631L25.7564 18.959C25.9295 18.7859 25.9295 18.5059 25.7564 18.3328L21.6681 14.2445C21.4913 14.0714 21.2114 14.0714 21.0382 14.2445ZM15.1414 23.0878C14.9389 22.8852 14.9389 22.5611 15.1414 22.3585L20.8136 16.6864C21.0161 16.4839 21.3403 16.4839 21.5428 16.6864C21.7454 16.889 21.7454 17.2131 21.5428 17.4157L15.8707 23.0878C15.6681 23.2904 15.344 23.2904 15.1414 23.0878ZM13.8118 26.1854H15.5797V27.5224L13.2041 27.9386L12.0586 26.7931L12.4748 24.4174H13.8118V26.1854Z" fill="#B0F280"/>
</svg>
