<svg width="56" height="56" viewBox="0 0 56 56" fill="none" xmlns="http://www.w3.org/2000/svg">
<path d="M49.4016 44.0408L40.833 35.4737C40.4463 35.087 39.922 34.8722 39.372 34.8722H37.9711C40.3431 31.8389 41.7526 28.0236 41.7526 23.8733C41.7526 14 33.7512 6 23.8763 6C14.0014 6 6 14 6 23.8733C6 33.7465 14.0014 41.7465 23.8763 41.7465C28.0274 41.7465 31.8433 40.3373 34.8771 37.9656V39.3663C34.8771 39.9162 35.092 40.4404 35.4787 40.8271L44.0473 49.3942C44.8552 50.2019 46.1615 50.2019 46.9608 49.3942L49.393 46.9624C50.2009 46.1547 50.2009 44.8486 49.4016 44.0408ZM23.8763 34.8722C17.8001 34.8722 12.8755 29.957 12.8755 23.8733C12.8755 17.7981 17.7915 12.8743 23.8763 12.8743C29.9525 12.8743 34.8771 17.7895 34.8771 23.8733C34.8771 29.9484 29.9611 34.8722 23.8763 34.8722Z" fill="#030F0F"/>
</svg>
