<svg width="40" height="40" viewBox="0 0 40 40" fill="none" xmlns="http://www.w3.org/2000/svg">
<rect x="0.5" y="0.5" width="39" height="39" rx="3.5" fill="#061B13"/>
<rect x="0.5" y="0.5" width="39" height="39" rx="3.5" stroke="#373D3D"/>
<path d="M29.1721 26.8747L25.4998 23.203C25.3341 23.0373 25.1094 22.9452 24.8737 22.9452H24.2733C25.2899 21.6452 25.894 20.0101 25.894 18.2314C25.894 14 22.4648 10.5714 18.2327 10.5714C14.0006 10.5714 10.5714 14 10.5714 18.2314C10.5714 22.4628 14.0006 25.8914 18.2327 25.8914C20.0117 25.8914 21.6471 25.2874 22.9473 24.271V24.8713C22.9473 25.107 23.0394 25.3316 23.2051 25.4973L26.8774 29.169C27.2236 29.5151 27.7835 29.5151 28.126 29.169L29.1684 28.1268C29.5146 27.7806 29.5147 27.2208 29.1721 26.8747ZM18.2327 22.9452C15.6286 22.9452 13.5181 20.8387 13.5181 18.2314C13.5181 15.6278 15.6249 13.5176 18.2327 13.5176C20.8368 13.5176 22.9473 15.6241 22.9473 18.2314C22.9473 20.8351 20.8405 22.9452 18.2327 22.9452Z" fill="#B0F280"/>
</svg>
