<svg width="56" height="56" viewBox="0 0 56 56" fill="none" xmlns="http://www.w3.org/2000/svg">
<path d="M16.1791 6.35946C16.0659 6.24552 15.9313 6.15512 15.7832 6.09344C15.6351 6.03175 15.4762 6 15.3158 6C15.1554 6 14.9966 6.03175 14.8484 6.09344C14.7003 6.15512 14.5658 6.24552 14.4525 6.35946L7.98503 12.8073L5.67956 10.5544C5.56633 10.4405 5.43179 10.3501 5.28365 10.2884C5.13551 10.2267 4.97668 10.195 4.81628 10.195C4.65587 10.195 4.49704 10.2267 4.3489 10.2884C4.20076 10.3501 4.06622 10.4405 3.95299 10.5544L2.35846 12.1555C2.24484 12.269 2.15469 12.4039 2.09318 12.5525C2.03166 12.701 2 12.8603 2 13.0211C2 13.182 2.03166 13.3413 2.09318 13.4898C2.15469 13.6384 2.24484 13.7733 2.35846 13.8868L7.19183 18.7143C7.43308 18.9442 7.75322 19.0725 8.08608 19.0725C8.41895 19.0725 8.73909 18.9442 8.98034 18.7143L10.5637 17.1234L17.8965 9.77126C18.125 9.54197 18.2541 9.23159 18.2558 8.90746C18.2575 8.58333 18.1317 8.2716 17.9057 8.0399L16.1791 6.35946ZM16.1791 22.5721C16.0659 22.4582 15.9313 22.3678 15.7832 22.3061C15.6351 22.2444 15.4762 22.2127 15.3158 22.2127C15.1554 22.2127 14.9966 22.2444 14.8484 22.3061C14.7003 22.3678 14.5658 22.4582 14.4525 22.5721L7.98503 29.0617L5.67956 26.8109C5.56633 26.697 5.43179 26.6066 5.28365 26.5449C5.13551 26.4832 4.97668 26.4515 4.81628 26.4515C4.65587 26.4515 4.49704 26.4832 4.3489 26.5449C4.20076 26.6066 4.06622 26.697 3.95299 26.8109L2.35846 28.4089C2.24484 28.5224 2.15469 28.6573 2.09318 28.8059C2.03166 28.9544 2 29.1137 2 29.2746C2 29.4354 2.03166 29.5947 2.09318 29.7432C2.15469 29.8918 2.24484 30.0267 2.35846 30.1402L7.17964 34.9779C7.42073 35.2078 7.7407 35.336 8.07339 35.336C8.40608 35.336 8.72605 35.2078 8.96714 34.9779L10.5617 33.3799L17.8945 26.0247C18.1221 25.797 18.2508 25.4884 18.2525 25.166C18.2542 24.8436 18.1288 24.5336 17.9036 24.3035L16.1791 22.5721ZM8.49995 40.2229C5.80956 40.2229 3.56503 42.4126 3.56503 45.1114C3.56503 47.8103 5.81159 50 8.49995 50C9.79288 50 11.0329 49.485 11.9471 48.5682C12.8613 47.6514 13.375 46.408 13.375 45.1114C13.375 43.8149 12.8613 42.5715 11.9471 41.6547C11.0329 40.7379 9.79288 40.2229 8.49995 40.2229ZM52.375 41.8524H23.125C22.694 41.8524 22.2807 42.0241 21.9759 42.3297C21.6712 42.6353 21.5 43.0497 21.5 43.4819V46.741C21.5 47.1731 21.6712 47.5876 21.9759 47.8932C22.2807 48.1988 22.694 48.3705 23.125 48.3705H52.375C52.806 48.3705 53.2193 48.1988 53.5241 47.8932C53.8288 47.5876 54 47.1731 54 46.741V43.4819C54 43.0497 53.8288 42.6353 53.5241 42.3297C53.2193 42.0241 52.806 41.8524 52.375 41.8524ZM52.375 9.26204H23.125C22.694 9.26204 22.2807 9.43372 21.9759 9.73931C21.6712 10.0449 21.5 10.4594 21.5 10.8916V14.1506C21.5 14.5828 21.6712 14.9972 21.9759 15.3028C22.2807 15.6084 22.694 15.7801 23.125 15.7801H52.375C52.806 15.7801 53.2193 15.6084 53.5241 15.3028C53.8288 14.9972 54 14.5828 54 14.1506V10.8916C54 10.4594 53.8288 10.0449 53.5241 9.73931C53.2193 9.43372 52.806 9.26204 52.375 9.26204ZM52.375 25.5572H23.125C22.694 25.5572 22.2807 25.7289 21.9759 26.0345C21.6712 26.3401 21.5 26.7546 21.5 27.1867V30.4458C21.5 30.878 21.6712 31.2924 21.9759 31.598C22.2807 31.9036 22.694 32.0753 23.125 32.0753H52.375C52.806 32.0753 53.2193 31.9036 53.5241 31.598C53.8288 31.2924 54 30.878 54 30.4458V27.1867C54 26.7546 53.8288 26.3401 53.5241 26.0345C53.2193 25.7289 52.806 25.5572 52.375 25.5572Z" fill="#030F0F"/>
</svg>
