<svg width="56" height="56" viewBox="0 0 56 56" fill="none" xmlns="http://www.w3.org/2000/svg">
<path d="M12.6 25.8571C15.0269 25.8571 17 23.9353 17 21.5714C17 19.2076 15.0269 17.2857 12.6 17.2857C10.1731 17.2857 8.2 19.2076 8.2 21.5714C8.2 23.9353 10.1731 25.8571 12.6 25.8571ZM43.4 25.8571C45.8269 25.8571 47.8 23.9353 47.8 21.5714C47.8 19.2076 45.8269 17.2857 43.4 17.2857C40.9731 17.2857 39 19.2076 39 21.5714C39 23.9353 40.9731 25.8571 43.4 25.8571ZM45.6 28H41.2C39.99 28 38.8969 28.4754 38.0994 29.2455C40.87 30.7254 42.8363 33.3973 43.2625 36.5714H47.8C49.0169 36.5714 50 35.6138 50 34.4286V32.2857C50 29.9219 48.0269 28 45.6 28ZM28 28C32.2556 28 35.7 24.6451 35.7 20.5C35.7 16.3549 32.2556 13 28 13C23.7444 13 20.3 16.3549 20.3 20.5C20.3 24.6451 23.7444 28 28 28ZM33.28 30.1429H32.7094C31.2794 30.8125 29.6913 31.2143 28 31.2143C26.3088 31.2143 24.7275 30.8125 23.2906 30.1429H22.72C18.3475 30.1429 14.8 33.5982 14.8 37.8571V39.7857C14.8 41.5603 16.2781 43 18.1 43H37.9C39.7219 43 41.2 41.5603 41.2 39.7857V37.8571C41.2 33.5982 37.6525 30.1429 33.28 30.1429ZM17.9006 29.2455C17.1031 28.4754 16.01 28 14.8 28H10.4C7.97313 28 6 29.9219 6 32.2857V34.4286C6 35.6138 6.98312 36.5714 8.2 36.5714H12.7306C13.1638 33.3973 15.13 30.7254 17.9006 29.2455Z" fill="#030F0F"/>
</svg>
