<svg width="40" height="40" viewBox="0 0 40 40" fill="none" xmlns="http://www.w3.org/2000/svg">
<rect x="0.5" y="0.5" width="39" height="39" rx="3.5" fill="#061B13"/>
<rect x="0.5" y="0.5" width="39" height="39" rx="3.5" stroke="#373D3D"/>
<path d="M13.4 19.0816C14.4401 19.0816 15.2857 18.258 15.2857 17.2449C15.2857 16.2318 14.4401 15.4081 13.4 15.4081C12.3599 15.4081 11.5143 16.2318 11.5143 17.2449C11.5143 18.258 12.3599 19.0816 13.4 19.0816ZM26.6 19.0816C27.6401 19.0816 28.4857 18.258 28.4857 17.2449C28.4857 16.2318 27.6401 15.4081 26.6 15.4081C25.5599 15.4081 24.7143 16.2318 24.7143 17.2449C24.7143 18.258 25.5599 19.0816 26.6 19.0816ZM27.5429 20H25.6571C25.1386 20 24.6701 20.2037 24.3283 20.5338C25.5157 21.168 26.3584 22.3131 26.5411 23.6735H28.4857C29.0072 23.6735 29.4286 23.2631 29.4286 22.7551V21.8367C29.4286 20.8236 28.5829 20 27.5429 20ZM20 20C21.8238 20 23.3 18.5622 23.3 16.7857C23.3 15.0092 21.8238 13.5714 20 13.5714C18.1762 13.5714 16.7 15.0092 16.7 16.7857C16.7 18.5622 18.1762 20 20 20ZM22.2629 20.9183H22.0183C21.4054 21.2053 20.7248 21.3775 20 21.3775C19.2752 21.3775 18.5975 21.2053 17.9817 20.9183H17.7371C15.8632 20.9183 14.3429 22.3992 14.3429 24.2245V25.051C14.3429 25.8115 14.9763 26.4286 15.7571 26.4286H24.2429C25.0237 26.4286 25.6571 25.8115 25.6571 25.051V24.2245C25.6571 22.3992 24.1368 20.9183 22.2629 20.9183ZM15.6717 20.5338C15.3299 20.2037 14.8614 20 14.3429 20H12.4571C11.4171 20 10.5714 20.8236 10.5714 21.8367V22.7551C10.5714 23.2631 10.9928 23.6735 11.5143 23.6735H13.456C13.6416 22.3131 14.4843 21.168 15.6717 20.5338Z" fill="#B0F280"/>
</svg>
